<svg fill="none" height="24" viewBox="0 0 24 24" width="24" xmlns="http://www.w3.org/2000/svg"><g stroke="#22202a"><path d="m21.5 12c0 5.5228-3.9772 9.5-9.5 9.5-5.52285 0-9.5-3.9772-9.5-9.5 0-5.52285 3.97715-9.5 9.5-9.5 5.5228 0 9.5 3.97715 9.5 9.5z"/><path d="m10.2202 7.77165c-.0952.22971-.0952.52092-.0952 1.10335v1.19c0 .0283 0 .0424-.0088.0512s-.0229.0088-.0512.0088h-1.19c-.58243 0-.87364 0-1.10335.0952-.30629.1268-.54963.3702-.6765.6764-.09515.2298-.09515.521-.09515 1.1034s0 .8736.09515 1.1034c.12687.3062.37021.5496.6765.6764.22971.0952.52092.0952 1.10335.0952h1.19c.0283 0 .0424 0 .0512.0088s.0088.0229.0088.0512v1.19c0 .5824 0 .8736.0952 1.1034.1268.3062.3702.5496.6764.6765.2298.0951.521.0951 1.1034.0951s.8736 0 1.1034-.0951c.3062-.1269.5496-.3703.6764-.6765.0952-.2298.0952-.521.0952-1.1034v-1.19c0-.0283 0-.0424.0088-.0512s.0229-.0088.0512-.0088h1.19c.5824 0 .8736 0 1.1034-.0952.3062-.1268.5496-.3702.6765-.6764.0951-.2298.0951-.521.0951-1.1034s0-.8736-.0951-1.1034c-.1269-.3062-.3703-.5496-.6765-.6764-.2298-.0952-.521-.0952-1.1034-.0952h-1.19c-.0283 0-.0424 0-.0512-.0088s-.0088-.0229-.0088-.0512v-1.19c0-.58243 0-.87364-.0952-1.10335-.1268-.30629-.3702-.54963-.6764-.6765-.2298-.09515-.521-.09515-1.1034-.09515s-.8736 0-1.1034.09515c-.3062.12687-.5496.37021-.6764.6765z"/></g></svg>